<?xml version="1.0" encoding="UTF-8" standalone="no"?>
<svg
   width="32"
   height="32"
   fill="#000000"
   viewBox="0 0 256 256"
   version="1.1"
   id="svg1"
   xmlns="http://www.w3.org/2000/svg"
   xmlns:svg="http://www.w3.org/2000/svg">
  <defs
     id="defs1" />
  <path
     d="m 56,8 a 8,8 0 0 1 8,-8 h 64 a 8,8 0 0 1 0,16 H 64 A 8,8 0 0 1 56,8 Z m 112,48 v 168 a 24,24 0 0 1 -24,24 H 48 A 24,24 0 0 1 24,224 V 56 A 24,24 0 0 1 48,32 h 96 a 24,24 0 0 1 24,24 z m -16,0 a 8,8 0 0 0 -8,-8 H 48 a 8,8 0 0 0 -8,8 v 168 a 8,8 0 0 0 8,8 h 96 a 8,8 0 0 0 8,-8 z M 128,192 H 64 a 8,8 0 0 0 0,16 h 64 a 8,8 0 0 0 0,-16 z"
     id="path1" />
  <path
     d="m 245.81059,127.78339 c 2.17658,4.20541 2.37408,9.45859 0.5218,13.88035 l -23.85357,57.01808 c -2.94768,7.04592 -10.11637,9.90185 -16.01172,6.37888 -5.89535,-3.52297 -8.28491,-12.09075 -5.33723,-19.13669 l 15.23647,-36.38466 h -28.41558 c -8.87156,0.009 -14.6445,-11.1513 -10.67447,-20.63342 l 23.85358,-57.018058 c 2.94767,-7.045941 10.11636,-9.90186 16.0117,-6.378891 5.89536,3.522966 8.28492,12.090749 5.33725,19.136685 l -15.23648,36.384654 h 28.41558 c 4.13487,-0.004 7.97669,2.55085 10.15267,6.75307 z"
     id="path1-7"
     style="stroke-width:1.62985" />
</svg>
