<?xml version="1.0" encoding="UTF-8" standalone="no"?>
<svg
   width="32"
   height="32"
   fill="#000000"
   viewBox="0 0 256 256"
   version="1.1"
   id="svg1"
   xmlns="http://www.w3.org/2000/svg"
   xmlns:svg="http://www.w3.org/2000/svg">
  <defs
     id="defs1" />
  <path
     d="M196.8,169.6,141.33,128,196.8,86.4a8,8,0,0,0,0-12.8l-64-48A8,8,0,0,0,120,32v80L68.8,73.6a8,8,0,0,0-9.6,12.8L114.67,128,59.2,169.6a8,8,0,1,0,9.6,12.8L120,144v80a8,8,0,0,0,12.8,6.4l64-48a8,8,0,0,0,0-12.8ZM136,48l42.67,32L136,112Zm0,160V144l42.67,32Z"
     id="path1" />
</svg>
