<?xml version="1.0" encoding="UTF-8" standalone="no"?>
<svg
   width="32"
   height="32"
   fill="#000000"
   viewBox="0 0 256 256"
   version="1.1"
   id="svg1"
   xmlns="http://www.w3.org/2000/svg"
   xmlns:svg="http://www.w3.org/2000/svg">
  <defs
     id="defs1" />
  <path
     d="M 24,128 A 72.08,72.08 0 0 1 96,56 H 204.69 L 194.34,45.66 a 8.0044488,8.0044488 0 0 1 11.32,-11.32 l 24,24 a 8,8 0 0 1 0,11.32 l -24,24 A 8.0044488,8.0044488 0 0 1 194.34,82.34 L 204.69,72 H 96 a 56.06,56.06 0 0 0 -56,56 8,8 0 0 1 -16,0 z m 200,-8 a 8,8 0 0 0 -8,8 56.06,56.06 0 0 1 -56,56 H 51.31 L 61.66,173.66 A 8.0044488,8.0044488 0 0 0 50.34,162.34 l -24,24 a 8,8 0 0 0 0,11.32 l 24,24 A 8.0044488,8.0044488 0 0 0 61.66,210.34 L 51.31,200 H 160 a 72.08,72.08 0 0 0 72,-72 8,8 0 0 0 -8,-8 z"
     id="path1" />
  <path
     style="fill:#ffffff;stroke:#000000;stroke-width:19.2;stroke-linecap:round;stroke-linejoin:round;stroke-dasharray:none"
     d="M 32.929939,41.749534 222.66729,214.80779"
     id="path2" />
</svg>
