<?xml version="1.0" encoding="UTF-8" standalone="no"?>
<svg
   width="32"
   height="32"
   fill="#000000"
   viewBox="0 0 256 256"
   version="1.1"
   id="svg1"
   xml:space="preserve"
   xmlns="http://www.w3.org/2000/svg"
   xmlns:svg="http://www.w3.org/2000/svg"><defs
     id="defs1" /><path
     d="m 176,232 c 0,4.41828 -3.58172,8 -8,8 H 88 c -4.418281,0 -7.999997,-3.58172 -7.999997,-8 0,-4.41828 3.581716,-8 7.999997,-8 h 80 c 4.41828,0 8,3.58172 8,8 z m 31.33891,-89.14217 C 200.6204,159.34967 197.10014,158.67544 182.36,173.21 c -3.98177,3.05209 -6.32938,7.77315 -6.36,12.79 v 6 c 0,8.83656 -7.16344,16 -16,16 H 96 c -8.836556,0 -16,-7.16344 -16,-16 v -6 C 79.9967,181.04275 77.695747,176.36702 73.77,173.34 52.531153,156.79891 40.078271,131.41007 40,104.49 39.74,56.83 57.894746,20.65125 104.81249,17.170417 c 0,0 8.0716,-0.208937 8.26588,7.414792 0.19842,7.786625 -7.88588,8.585208 -7.88588,8.585208 C 69.001496,38.069834 55.79,65.39 56,104.39 c 0.07404,22.01655 10.266049,42.77669 27.64,56.3 7.811139,6.07229 12.37421,15.41625 12.36,25.31 v 6 h 64 v -6 c 0.0225,-9.92146 4.6245,-19.27678 12.47,-25.35 10.64109,-8.47137 16.12011,-12.0574 20.5075,-21.30342 0,0 1.89451,-8.36758 10.10675,-6.32025 8.61504,2.14775 4.25466,9.8315 4.25466,9.8315 z"
     id="path1" /><g
     style="fill:#000000"
     id="g1"
     transform="matrix(0.58564,0,0,0.58564,107.3928,-0.53620223)"><path
       d="m 222.07126,56.832086 c 0,3.976452 -3.22354,7.2 -7.2,7.2 h -14.4 v 14.399996 c 0,3.97646 -3.22354,7.2 -7.2,7.2 -3.97645,0 -7.2,-3.22354 -7.2,-7.2 V 64.032086 h -14.4 c -3.97645,0 -7.2,-3.223548 -7.2,-7.2 0,-3.976451 3.22355,-7.2 7.2,-7.2 h 14.4 v -14.4 c 0,-3.976453 3.22355,-7.199998 7.2,-7.199998 3.97646,0 7.2,3.223545 7.2,7.199998 v 14.4 h 14.4 c 3.97646,0 7.2,3.223549 7.2,7.2 z m 4.7261,68.711154 c 1.70685,1.98718 2.19974,4.74458 1.287,7.2 -10.15322,27.68963 -33.72917,48.28759 -62.53093,54.63228 -28.80176,6.3447 -58.85019,-2.44041 -79.698546,-23.30062 -20.84836,-20.86021 -29.616396,-50.91364 -23.255327,-79.711787 6.36107,-28.798145 26.972418,-52.36238 54.667803,-62.499866 5.27139,-1.930574 10.62623,2.646298 9.54,8.154 -10.93203,55.332056 37.79095,104.055023 93.123,93.122993 2.55511,-0.49943 5.1808,0.41939 6.867,2.403 z"
       id="path1-5"
       style="stroke-width:0.9" /></g></svg>
