<?xml version="1.0" encoding="UTF-8" standalone="no"?>
<svg
   width="32"
   height="32"
   fill="#000000"
   viewBox="0 0 256 256"
   version="1.1"
   id="svg1"
   xmlns="http://www.w3.org/2000/svg"
   xmlns:svg="http://www.w3.org/2000/svg">
  <defs
     id="defs1" />
  <path
     id="path6"
     d="m 150.62,200 h -45.24 c 3.39642,9.57829 12.45736,15.97905 22.62,15.97905 10.16264,0 19.22358,-6.40076 22.62,-15.97905 z m 56.74634,-89.47855 c 0,26.27 5.41366,49.85855 14.44366,65.41855 6.21754,10.66206 -1.4675,24.05106 -13.81,24.06 h -40.8 c -3.78554,18.64259 -20.17695,32.0401 -39.2,32.0401 -19.02305,0 -35.41446,-13.39751 -39.2,-32.0401 H 48 C 35.666399,199.97566 27.996912,186.59438 34.21,175.94 43.22,160.39 48,138.28 48,112 48,67.81719 83.817221,32.000035 128,32.000035 c 0,0 1.49086,-0.06905 8.69132,0.467199 C 130.48835,38.889844 128,48.000028 128,48.000028 92.653777,48.000028 64,76.653752 64,112 c 0,29.52 -5.38,53.74 -16,72 h 160 c -10.64,-18.27 -15.78878,-39.11046 -15.78878,-68.62046 6.76588,-1.59413 9.8284,-2.32343 15.15512,-4.85809 z" />
  <path
     d="m 213.6,63.141914 c 0,18.24 -15.36,33.6 -33.6,33.6 -18.24,0 -33.6,-15.36 -33.6,-33.6 0,-18.24 15.36,-33.6 33.6,-33.6 18.24,0 33.6,15.36 33.6,33.6"
     id="path3"
     class="error" />
</svg>
